<?xml version="1.0" encoding="utf-8"?>
<!-- Generator: Adobe Illustrator 17.1.0, SVG Export Plug-In . SVG Version: 6.00 Build 0)  -->
<!DOCTYPE svg PUBLIC "-//W3C//DTD SVG 1.1//EN" "http://www.w3.org/Graphics/SVG/1.1/DTD/svg11.dtd">
<svg version="1.1" id="Слой_1" xmlns="http://www.w3.org/2000/svg" xmlns:xlink="http://www.w3.org/1999/xlink" x="0px" y="0px"
	 viewBox="0 0 100 100" enable-background="new 0 0 100 100" xml:space="preserve">
<g>
	<g>
		<defs>
			<rect id="SVGID_1_" x="25.3" y="28.7" width="49.2" height="42.8"/>
		</defs>
		<clipPath id="SVGID_2_">
			<use xlink:href="#SVGID_1_"  overflow="visible"/>
		</clipPath>
		<path clip-path="url(#SVGID_2_)" fill="#FFFFFF" d="M68.4,68.7c0-1.5-1.2-2.8-2.8-2.8H34.1c-1.5,0-2.8,1.2-2.8,2.8
			c0,1.5,1.2,2.8,2.8,2.8h31.5C67.1,71.4,68.4,70.2,68.4,68.7L68.4,68.7z M68.4,68.7"/>
		<path clip-path="url(#SVGID_2_)" fill="#FFFFFF" d="M28.5,46.4c0,0,0.1,0,0.1,0L33,62.2h33.6L71,46.4c0,0,0.1,0,0.1,0
			c1.8,0,3.3-1.5,3.3-3.3c0-1.8-1.5-3.3-3.3-3.3c-1.8,0-3.3,1.5-3.3,3.3c0,0.4,0.1,0.7,0.2,1l-7.9,4.6l-8.5-14.1
			c0.9-0.6,1.5-1.6,1.5-2.7c0-1.8-1.5-3.3-3.3-3.3c-1.8,0-3.3,1.5-3.3,3.3c0,1.1,0.6,2.1,1.5,2.7l-8.5,14.1l-7.9-4.6
			c0.1-0.3,0.2-0.7,0.2-1c0-1.8-1.5-3.3-3.3-3.3c-1.8,0-3.3,1.5-3.3,3.3C25.3,44.9,26.7,46.4,28.5,46.4L28.5,46.4z M28.5,46.4"/>
	</g>
</g>
</svg>
