<?xml version="1.0" encoding="utf-8"?>
<!-- Generator: Adobe Illustrator 17.1.0, SVG Export Plug-In . SVG Version: 6.00 Build 0)  -->
<!DOCTYPE svg PUBLIC "-//W3C//DTD SVG 1.1//EN" "http://www.w3.org/Graphics/SVG/1.1/DTD/svg11.dtd">
<svg version="1.1" id="Слой_1" xmlns="http://www.w3.org/2000/svg" xmlns:xlink="http://www.w3.org/1999/xlink" x="0px" y="0px"
	 viewBox="0 0 400 400" enable-background="new 0 0 400 400" xml:space="preserve">
<g>
	<path fill-rule="evenodd" clip-rule="evenodd" d="M217.9,206.6c-5.8,1.1-9.3,2.2-14,5.2c-3.3,2.1-1.2,1.5-4.3,1
		c-1.6-0.3-4.3,0.5-5.8,0.3c-1.8-0.2-9.3-7.4-19.7-6.6c-2.8,0.2-3.1,0.4-3.6,2.8c-1.8,7.6-1.3,16.8,0.1,24.5
		c0.8,4.6,2.2,6.4,7.5,5.5c3.1-0.6,6.7-2.2,9-3.7c1.5-1,2.4-1.6,3.8-2.6c1.9-1.4,2-2.1,4.6-2.2c8.6-0.3,5.4,1.9,19,6.9
		c8.7,3.2,10.5-1,10.7-12.8c0.1-4.1-0.1-8.7-0.7-12.7C223.9,207.2,223.4,205.5,217.9,206.6z"/>
	<path fill-rule="evenodd" clip-rule="evenodd" fill="#C1272D" d="M193,225.6c-2.4-0.1-5.8,0.9-7.5,0.2c2.8-0.7,6.8-0.6,8.1-3.2
		c-0.6-0.4-0.1-0.2-1.1-0.5c-1.4-0.3-2.3,0-4.4-0.6c-1.8-0.5-2.5-1.1-4.4-1.4c4.2-0.3,7.2,1.2,9.2-0.9l-7.6-2.5
		c4.4-0.1,5.3,0.8,9.2,1.4c-0.5-2.9-3.8-4.8-6.1-6.2c-2.5-1.5-5.4-2.9-8.2-3.6c-4.1-1-7-1.9-8.2,2.2c-1.7,5.6-0.9,14.6,0.6,20.5
		c1,3.9,1.9,5.5,6.9,4.7C184.3,234.8,191.6,229.1,193,225.6z"/>
	<path fill-rule="evenodd" clip-rule="evenodd" fill="#C1272D" d="M201.6,218.4c2-0.3,0.8-0.7,3.3-1c0.5,1.5-0.3,0.1,0.5,0.9
		l0.5,0.4c0.1,0.1,0.2,0.1,0.3,0.2c-2,0.3-4.1,1.2-4.9,2.8c1.6,2.9,4.3,2.4,6.6,3.2c0.9,0.3,0.5,0.2,1,0.5c-1.3,0.1-2.9,0.2-4.2,0.1
		c-1.7-0.1-1.9-0.5-3.8-0.8c0.5,2.4,2.8,3.5,6.1,5.6c2.3,1.5,4.7,3,7.4,4c3.6,1.3,5.9,2.4,7.6-1.7c2.4-5.7,2.1-19.7,0-25.1
		c-4.1-0.4-9.2,1.2-12.6,3C205.5,212.6,201.2,214.7,201.6,218.4z"/>
	<path fill-rule="evenodd" clip-rule="evenodd" fill="#C1272D" d="M195.1,226.7l4.1,0.6c1.1-2.2,3.2-12.3-0.2-12.7
		c-0.4,0-0.5,0-0.9-0.1c-0.7-0.1-1.5-0.4-2.7-0.5C195.2,217.9,193.7,222.6,195.1,226.7z"/>
</g>
<path fill-rule="evenodd" clip-rule="evenodd" d="M157.7,188.2c3.3-5.6-8.7-10.7-13.2-1.2c-4.8,10,12.9,18.3,34.3,9.4
	c3.2-1.3,5.7-2.5,8.8-4.1c1.7-0.9,7.3-4.2,9.2-4.2c4.4,0,21.4,14.6,39.8,12c19.6-2.8,13.8-17.7,5.3-18.3c-4.1-0.3-8.1,3.1-6,6.5
	c0.4-0.4,0,0,0.6-0.7c4.8-6.6,11.7,0.5,4,4c-6.4,2.8-12.2-0.8-15.8-3.7c-6.8-5.7-13.4-18.5-27.8-10.3c-14.2-7.9-19.7,3.4-27.8,10.3
	c-11.9,10.1-22.7,1.2-18.2-2.1c1.2-0.9,2.9-0.9,4.2-0.3c0.8,0.4,1.1,0.7,1.6,1.3L157.7,188.2z"/>
<g>
	<path fill-rule="evenodd" clip-rule="evenodd" d="M176.1,135.7c-10.2,0-18.4,8.2-18.4,18.4c0,10.2,8.2,18.4,18.4,18.4
		c10.2,0,18.4-8.2,18.4-18.4C194.5,144,186.3,135.7,176.1,135.7z M176.1,138.5c-8.6,0-15.6,7-15.6,15.6c0,8.6,7,15.6,15.6,15.6
		s15.6-7,15.6-15.6C191.7,145.5,184.7,138.5,176.1,138.5z"/>
	<path fill-rule="evenodd" clip-rule="evenodd" d="M187.4,147c-11.9-12.9-28.5,0.2-22.4,14.4C157,142,179.7,135.4,187.4,147z"/>
</g>
<g>
	<path fill-rule="evenodd" clip-rule="evenodd" d="M197.1,107.3c30.4,0,55,10.4,55,23.2c0,12.8-24.6,23.2-55,23.2
		c-30.4,0-55-10.4-55-23.2C142.1,117.8,166.7,107.3,197.1,107.3z"/>
	<path fill-rule="evenodd" clip-rule="evenodd" d="M158,63.4h39.1h39.1c-3.6,21.2-2.6,43.5-0.6,67.2c0,0.2,0.1,0.4,0.1,0.6
		c-0.8,1.3-3.2,4-6.4,5.9c-4.7,2.8-13.6,6.8-32.1,6.7c-18.5,0.1-25.5-3.7-30.2-6.5c-3.3-1.9-5.6-4.6-6.4-5.9c0-0.2,0-0.4,0.1-0.6
		C162.4,107.1,161.6,84.7,158,63.4z"/>
	<path fill-rule="evenodd" clip-rule="evenodd" fill="#FFFFFF" d="M234.8,119.1c0.3,3.8,0.5,7.6,0.9,11.5c0,0.2,0.1,0.4,0.1,0.6
		c-0.8,1.3-3.2,4-6.4,5.9c-4.7,2.8-13.6,6.8-32.1,6.7c-18.5,0.1-25.5-3.7-30.2-6.5c-3.3-1.9-5.6-4.6-6.4-5.9c0-0.2,0-0.4,0.1-0.6
		c0.3-3.9,0.6-7.8,0.7-11.6c1.1,1.4,3.1,3.4,5.6,4.9c4.7,2.8,11.8,6.6,30.2,6.5c18.5,0.1,27.4-3.9,32.1-6.7
		C231.7,122.4,233.6,120.5,234.8,119.1z"/>
	<path fill-rule="evenodd" clip-rule="evenodd" d="M197.1,51.9c21.5,0,39,5.2,39,11.5c0,6.4-17.5,11.5-39,11.5
		c-21.5,0-39-5.2-39-11.5C158.1,57.1,175.5,51.9,197.1,51.9z"/>
</g>
<g>
	<path fill-rule="evenodd" clip-rule="evenodd" d="M123.2,237.8c0.1,0,0.2,0.1,0.2,0.2c0,0.2-0.1,0.5-0.3,1.1l-3.1,8.8
		c-0.1,0.3-0.2,0.5-0.2,0.6c0,0.2-0.1,0.2-0.1,0.3c0,0.2,0.1,0.3,0.2,0.3c0.1,0,0.2-0.1,0.4-0.2c0.2-0.1,0.4-0.3,0.7-0.5
		c0.2-0.2,0.5-0.3,0.7-0.5c0.2-0.1,0.5-0.2,0.6-0.2c0.2,0,0.3,0.1,0.3,0.3c0,0.2,0,0.5-0.1,1c-0.1,0.5-0.2,1-0.4,1.6
		c-0.2,0.6-0.5,1.2-0.8,1.9c-0.3,0.6-0.8,1.2-1.3,1.8c-0.5,0.5-1.1,1-1.8,1.3c-0.7,0.4-1.5,0.5-2.4,0.5c-0.4,0-0.9,0-1.3-0.1
		c-0.4-0.1-0.8-0.2-1.1-0.4c-0.3-0.2-0.6-0.4-0.8-0.6c-0.2-0.2-0.3-0.4-0.3-0.7c0-0.4,0.2-0.5,0.5-0.5c0.1,0,0.3,0,0.4,0.1
		c0.1,0.1,0.2,0.2,0.3,0.3c0.1,0.1,0.2,0.3,0.3,0.4c0.1,0.1,0.2,0.3,0.4,0.4c0.2,0.1,0.4,0.2,0.6,0.3c0.2,0.1,0.5,0.1,0.9,0.1
		c0.9,0,1.6-0.1,2.2-0.4c0.6-0.2,1.1-0.6,1.5-1.1c0.2-0.3,0.5-0.7,0.7-1.2c0.2-0.5,0.4-1,0.6-1.5c0.2-0.5,0.3-1,0.4-1.4
		c0.1-0.4,0.2-0.6,0.2-0.7c0-0.2-0.1-0.3-0.2-0.3c-0.1,0-0.3,0.1-0.5,0.2c-0.2,0.1-0.4,0.3-0.7,0.5c-0.2,0.2-0.5,0.3-0.8,0.5
		c-0.3,0.1-0.5,0.2-0.7,0.2c-0.2,0-0.3-0.1-0.3-0.3c0,0,0-0.1,0-0.2c0-0.1,0.1-0.3,0.1-0.5c-0.9,0.7-1.8,1-2.7,1
		c-0.4,0-0.8-0.2-1-0.5c-0.3-0.3-0.4-0.7-0.4-1.2c0-0.3,0.1-0.7,0.2-1c0.1-0.4,0.2-0.7,0.4-1l2.2-6.5c0-0.1,0.1-0.3,0.1-0.4
		c0-0.1,0-0.3,0-0.5c0-0.2-0.1-0.4-0.3-0.6c-0.2-0.2-0.5-0.3-0.8-0.4c-0.3-0.1-0.7-0.2-1.1-0.2c-0.4,0-0.8-0.1-1.1-0.1
		c-0.6,0-1.2,0.1-1.9,0.2c-0.6,0.1-1.2,0.4-1.7,0.7c-0.5,0.3-1,0.7-1.3,1.1c-0.3,0.4-0.5,1-0.5,1.6c0,1.6,0.9,2.3,2.8,2.3
		c0.2,0,0.3,0.1,0.3,0.3c0,0.2-0.1,0.3-0.4,0.3c-1.3,0-2.2-0.2-2.9-0.7c-0.6-0.5-0.9-1.2-0.9-2.2c0-0.7,0.2-1.3,0.6-1.8
		c0.4-0.5,0.9-0.9,1.6-1.3c0.6-0.3,1.3-0.6,2.1-0.8c0.8-0.2,1.5-0.3,2.2-0.3c0.5,0,1,0,1.6,0.1c0.5,0.1,1,0.1,1.5,0.2
		c0.5,0.1,0.8,0.2,1.1,0.4c0.3,0.2,0.4,0.3,0.4,0.6c0,0.2-0.1,0.6-0.4,1.3l-2.2,6.5c-0.3,1-0.5,1.6-0.5,1.9c0,0.7,0.4,1.1,1.1,1.1
		c0.7,0,1.5-0.4,2.4-1.1c0.3-0.8,0.7-1.8,1.1-3.2c0.5-1.4,1.1-3.1,1.8-5.1c0.2-0.5,0.3-0.8,0.3-0.9c0-0.1,0-0.2-0.1-0.2
		c0,0-0.1,0-0.1,0c-0.1,0-0.1,0.1-0.2,0.1c-0.1,0-0.1,0.1-0.2,0.1c-0.1,0-0.1,0-0.1,0c-0.1,0-0.2-0.1-0.2-0.2c0-0.1,0.1-0.2,0.3-0.3
		c0.2-0.1,0.4-0.3,0.6-0.4c0.2-0.1,0.5-0.3,0.7-0.4C122.9,237.8,123.1,237.8,123.2,237.8z M124.5,248.5c0.1,0.9,0.6,1.4,1.4,1.4
		c0.7,0,1.4-0.2,1.9-0.7c0.2-0.2,0.3-0.3,0.3-0.3c0.1,0,0.2,0.1,0.2,0.2c0,0.1-0.1,0.2-0.2,0.4c-0.6,0.7-1.5,1-2.5,1
		c-0.7,0-1.3-0.2-1.6-0.6c-0.4-0.4-0.6-1-0.6-1.7c0-0.6,0.1-1.1,0.3-1.7c0.2-0.5,0.5-1,0.9-1.5c0.4-0.4,0.8-0.8,1.3-1.1
		c0.5-0.3,1-0.4,1.5-0.4c1,0,1.5,0.5,1.5,1.4c0,0.5-0.1,0.9-0.4,1.3c-0.3,0.4-0.6,0.8-1,1.1c-0.4,0.3-0.9,0.6-1.4,0.8
		C125.6,248.4,125.1,248.5,124.5,248.5z M124.4,248.1c0.5,0,0.9-0.1,1.4-0.2c0.4-0.1,0.8-0.3,1.1-0.6c0.3-0.3,0.6-0.6,0.8-0.9
		c0.2-0.4,0.3-0.7,0.3-1.2c0-0.7-0.3-1.1-0.8-1.1c-0.4,0-0.8,0.1-1.2,0.3c-0.3,0.2-0.6,0.5-0.9,0.9c-0.2,0.4-0.4,0.8-0.6,1.2
		c-0.1,0.4-0.2,0.9-0.2,1.3V248.1z M132.5,243.6c0.2,0,0.3,0.1,0.3,0.2c0,0.1,0,0.3-0.1,0.4s-0.1,0.3-0.2,0.5l-0.8,2
		c0.1-0.1,0.3-0.2,0.4-0.2c0.1-0.1,0.3-0.1,0.6-0.1h0.9c0.2,0,0.4,0,0.6-0.1c0.2-0.1,0.3-0.2,0.4-0.3l0.6-1.7
		c0.1-0.2,0.1-0.3,0.2-0.4c0-0.1,0.1-0.1,0.2-0.2c0.1-0.1,0.2-0.1,0.3-0.2s0.2-0.1,0.3-0.1c0.1,0,0.2,0.1,0.2,0.2
		c0,0-0.1,0.3-0.2,0.6l-1.6,4.3c-0.1,0.2-0.1,0.3-0.2,0.5s-0.1,0.2-0.1,0.3c0,0.1,0.1,0.2,0.2,0.2c0.1,0,0.1,0,0.2-0.1
		c0.1,0,0.2-0.1,0.3-0.1c0.1,0,0.2-0.1,0.2-0.1c0.1,0,0.1-0.1,0.1-0.1c0.1,0,0.2,0.1,0.2,0.2c0,0.1-0.1,0.2-0.2,0.3
		c-0.2,0.1-0.3,0.2-0.5,0.3c-0.2,0.1-0.4,0.2-0.6,0.2c-0.2,0.1-0.4,0.1-0.5,0.1c-0.2,0-0.3-0.1-0.3-0.3c0-0.2,0-0.3,0-0.4
		c0-0.1,0.1-0.2,0.1-0.4l0.9-2.4c-0.3,0.2-0.7,0.3-1.1,0.3h-0.8c-0.3,0-0.5,0.1-0.7,0.2c-0.2,0.1-0.3,0.2-0.3,0.3l-0.8,2
		c-0.1,0.2-0.2,0.4-0.3,0.5c-0.1,0.2-0.3,0.2-0.5,0.2c-0.1,0-0.2,0-0.2-0.1c0-0.1,0.1-0.3,0.2-0.6l1.4-3.8c0.2-0.6,0.3-0.9,0.3-1
		c0-0.1,0-0.2-0.1-0.2c0,0-0.1,0-0.2,0.1c-0.1,0-0.1,0.1-0.2,0.1c-0.1,0-0.1,0.1-0.2,0.1c-0.1,0-0.1,0.1-0.1,0.1
		c-0.1,0-0.2-0.1-0.2-0.2c0-0.1,0.1-0.2,0.2-0.3c0.2-0.1,0.3-0.3,0.6-0.4c0.2-0.1,0.5-0.2,0.7-0.3
		C132.1,243.6,132.3,243.6,132.5,243.6z M139.4,243.6c0.2,0,0.3,0.1,0.3,0.2c0,0.2-0.1,0.6-0.3,0.9c0.1-0.1,0.3-0.2,0.5-0.4
		c0.2-0.1,0.5-0.3,0.8-0.4c0.3-0.1,0.6-0.2,0.9-0.3c0.3-0.1,0.6-0.1,0.8-0.1c0.3,0,0.4,0.1,0.4,0.2c0,0.1,0,0.3-0.1,0.5
		c0.7-0.5,1.5-0.7,2.2-0.7c0.4,0,0.6,0.2,0.6,0.7c0,0.3-0.1,0.6-0.3,1l-1.4,3.6c-0.1,0.3-0.2,0.4-0.2,0.5c0,0.1,0.1,0.2,0.2,0.2
		c0,0,0.1,0,0.2-0.1c0.1,0,0.2-0.1,0.2-0.1c0.1,0,0.2-0.1,0.2-0.1c0.1,0,0.1-0.1,0.2-0.1c0.1,0,0.1,0.1,0.1,0.2
		c0,0.1-0.1,0.2-0.2,0.3c-0.1,0.1-0.3,0.2-0.5,0.3c-0.2,0.1-0.4,0.2-0.6,0.2c-0.2,0.1-0.4,0.1-0.5,0.1c-0.3,0-0.4-0.1-0.4-0.4
		c0-0.2,0.1-0.5,0.3-1l1.3-3.6c0.1-0.3,0.2-0.5,0.2-0.7c0-0.2-0.1-0.4-0.4-0.4c-0.2,0-0.5,0-0.7,0.1c-0.3,0.1-0.6,0.3-0.9,0.5
		l-1.8,4.6c-0.1,0.2-0.2,0.4-0.3,0.5c-0.1,0.2-0.3,0.2-0.6,0.2c-0.1,0-0.2,0-0.2-0.1c0,0,0-0.1,0-0.2c0-0.1,0.1-0.2,0.1-0.4l1.4-3.8
		c0.3-0.7,0.4-1.1,0.4-1.1c0-0.2-0.1-0.2-0.3-0.2c-0.3,0-0.7,0.2-1.2,0.5c-0.7,0.4-1.1,0.9-1.3,1.5l-1.3,3.3
		c-0.1,0.2-0.2,0.4-0.3,0.5c-0.1,0.2-0.3,0.2-0.6,0.2c-0.1,0-0.2,0-0.2-0.1c0,0,0-0.1,0-0.2c0-0.1,0.1-0.2,0.1-0.4l1.4-3.8
		c0.2-0.6,0.3-0.9,0.3-1c0-0.1,0-0.2-0.1-0.2c0,0-0.1,0-0.2,0.1c-0.1,0-0.1,0.1-0.2,0.1c-0.1,0-0.1,0.1-0.2,0.1
		c-0.1,0-0.1,0.1-0.1,0.1c-0.1,0-0.2-0.1-0.2-0.2c0-0.1,0.1-0.2,0.2-0.3c0.2-0.1,0.3-0.3,0.6-0.4c0.2-0.1,0.5-0.2,0.7-0.3
		C139,243.6,139.2,243.6,139.4,243.6z M148.7,244.7c0.7-0.8,1.5-1.2,2.3-1.2c0.9,0,1.3,0.6,1.3,1.7c0,0.3-0.1,0.6-0.2,1
		c-0.1,0.4-0.3,0.8-0.5,1.1c-0.2,0.4-0.4,0.8-0.7,1.1c-0.3,0.4-0.6,0.7-0.9,1c-0.3,0.3-0.7,0.5-1.1,0.7c-0.4,0.2-0.8,0.3-1.2,0.3
		c-0.5,0-0.9-0.2-1.1-0.5l-0.5,1.2c-0.4,1-0.8,1.7-1.3,2.2c-0.4,0.5-0.9,0.7-1.3,0.7c-0.2,0-0.3-0.1-0.3-0.2c0-0.2,0.1-0.3,0.4-0.3
		c0.3,0,0.6-0.2,0.9-0.7c0.3-0.4,0.6-1.1,0.9-2l1.8-5.3c0.1-0.3,0.2-0.5,0.2-0.7c0-0.2,0.1-0.3,0.1-0.3c0-0.1,0-0.2-0.1-0.2
		c-0.1,0-0.2,0.1-0.4,0.2c-0.1,0.1-0.2,0.2-0.3,0.2c-0.1,0-0.2-0.1-0.2-0.2c0-0.1,0.1-0.2,0.2-0.3c0.2-0.1,0.4-0.3,0.6-0.4
		c0.2-0.1,0.5-0.2,0.7-0.3c0.2-0.1,0.4-0.1,0.6-0.1c0.2,0,0.3,0.1,0.3,0.2c0,0.1,0,0.2-0.1,0.4C148.8,244.4,148.8,244.6,148.7,244.7
		L148.7,244.7z M150.5,244.4c-0.4,0-0.8,0.2-1.2,0.5c-0.4,0.3-0.7,0.7-1,1.2c-0.3,0.5-0.5,1-0.7,1.5c-0.2,0.5-0.2,1-0.2,1.4
		c0,0.7,0.3,1,0.9,1c0.3,0,0.7-0.1,1-0.4c0.4-0.3,0.7-0.6,1-1c0.3-0.4,0.6-0.9,0.8-1.4c0.2-0.5,0.3-1.1,0.3-1.6
		C151.3,244.7,151,244.4,150.5,244.4z M159.9,243.8c0,0.2-0.1,0.6-0.3,0.9c0.2-0.2,0.5-0.3,0.7-0.5c0.3-0.1,0.5-0.3,0.8-0.4
		c0.3-0.1,0.5-0.2,0.7-0.2c0.2-0.1,0.4-0.1,0.6-0.1c0.4,0,0.6,0.2,0.6,0.7c0,0.3-0.1,0.6-0.3,1l-1.4,3.7c-0.1,0.2-0.1,0.4-0.1,0.4
		c0,0.1,0.1,0.2,0.2,0.2c0,0,0.1,0,0.2-0.1c0.1,0,0.2-0.1,0.3-0.1c0.1,0,0.2-0.1,0.2-0.1c0.1,0,0.1-0.1,0.2-0.1
		c0.1,0,0.1,0.1,0.1,0.2c0,0.1-0.1,0.2-0.2,0.3c-0.1,0.1-0.3,0.2-0.5,0.3c-0.2,0.1-0.4,0.2-0.6,0.2c-0.2,0.1-0.3,0.1-0.5,0.1
		c-0.3,0-0.4-0.1-0.4-0.4c0-0.2,0.1-0.5,0.3-1l1.3-3.6c0.1-0.3,0.2-0.5,0.2-0.7c0-0.3-0.1-0.4-0.4-0.4c-0.2,0-0.5,0.1-0.7,0.2
		c-0.3,0.1-0.5,0.3-0.8,0.4c-0.3,0.2-0.5,0.4-0.7,0.6c-0.2,0.2-0.4,0.5-0.4,0.7l-1.3,3.3c-0.1,0.1-0.1,0.3-0.2,0.4
		c-0.2,0.2-0.4,0.3-0.6,0.4c-0.1,0-0.2,0-0.2-0.1c0-0.1,0.1-0.3,0.2-0.6l1.4-3.8c0.2-0.6,0.3-0.9,0.3-1c0-0.1,0-0.2-0.1-0.2
		c-0.1,0-0.2,0.1-0.3,0.2c-0.1,0.1-0.2,0.2-0.3,0.2c-0.1,0-0.2-0.1-0.2-0.2c0-0.1,0.1-0.2,0.2-0.3c0.2-0.1,0.3-0.3,0.6-0.4
		c0.2-0.1,0.5-0.2,0.7-0.3c0.2-0.1,0.4-0.1,0.6-0.1C159.8,243.6,159.9,243.7,159.9,243.8z M166.1,244.7c0.7-0.8,1.5-1.2,2.3-1.2
		c0.9,0,1.3,0.6,1.3,1.7c0,0.3-0.1,0.6-0.2,1c-0.1,0.4-0.3,0.8-0.5,1.1c-0.2,0.4-0.4,0.8-0.7,1.1c-0.3,0.4-0.6,0.7-0.9,1
		c-0.3,0.3-0.7,0.5-1.1,0.7c-0.4,0.2-0.8,0.3-1.2,0.3c-0.5,0-0.9-0.2-1.1-0.5l-0.5,1.2c-0.4,1-0.8,1.7-1.3,2.2
		c-0.4,0.5-0.9,0.7-1.3,0.7c-0.2,0-0.3-0.1-0.3-0.2c0-0.2,0.1-0.3,0.4-0.3c0.3,0,0.6-0.2,0.9-0.7c0.3-0.4,0.6-1.1,0.9-2l1.8-5.3
		c0.1-0.3,0.2-0.5,0.2-0.7c0-0.2,0.1-0.3,0.1-0.3c0-0.1,0-0.2-0.1-0.2c-0.1,0-0.2,0.1-0.4,0.2c-0.1,0.1-0.2,0.2-0.3,0.2
		c-0.1,0-0.2-0.1-0.2-0.2c0-0.1,0.1-0.2,0.2-0.3c0.2-0.1,0.4-0.3,0.6-0.4c0.2-0.1,0.5-0.2,0.7-0.3c0.2-0.1,0.4-0.1,0.6-0.1
		c0.2,0,0.3,0.1,0.3,0.2c0,0.1,0,0.2-0.1,0.4C166.3,244.4,166.2,244.6,166.1,244.7L166.1,244.7z M167.9,244.4
		c-0.4,0-0.8,0.2-1.2,0.5c-0.4,0.3-0.7,0.7-1,1.2c-0.3,0.5-0.5,1-0.7,1.5c-0.2,0.5-0.2,1-0.2,1.4c0,0.7,0.3,1,0.9,1
		c0.3,0,0.7-0.1,1-0.4c0.4-0.3,0.7-0.6,1-1c0.3-0.4,0.6-0.9,0.8-1.4c0.2-0.5,0.3-1.1,0.3-1.6C168.8,244.7,168.5,244.4,167.9,244.4z
		 M172.9,243.6c0.2,0,0.3,0.1,0.3,0.2c0,0.1,0,0.2-0.1,0.4c-0.1,0.2-0.1,0.3-0.2,0.5l-1.5,3.9c-0.1,0.3-0.2,0.5-0.2,0.7
		c0,0.2,0.1,0.4,0.4,0.4c0.2,0,0.5-0.1,0.8-0.2c0.3-0.1,0.5-0.3,0.8-0.4c0.3-0.2,0.5-0.4,0.7-0.6c0.2-0.2,0.3-0.5,0.5-0.7l1.3-3.4
		c0-0.1,0.1-0.2,0.1-0.2c0-0.1,0.1-0.1,0.1-0.2c0,0,0.1-0.1,0.1-0.1c0.1,0,0.1-0.1,0.2-0.1c0.1,0,0.1-0.1,0.2-0.1c0.1,0,0.1,0,0.2,0
		c0.1,0,0.2,0,0.2,0.1c0,0-0.1,0.3-0.2,0.6l-1.6,4.3c-0.1,0.2-0.1,0.4-0.2,0.5c0,0.1-0.1,0.2-0.1,0.2c0,0.1,0.1,0.2,0.2,0.2
		c0.1,0,0.2,0,0.2-0.1c0.1,0,0.2-0.1,0.2-0.1c0.1,0,0.2-0.1,0.2-0.1c0.1,0,0.1-0.1,0.1-0.1c0.1,0,0.2,0.1,0.2,0.2
		c0,0.1-0.1,0.2-0.2,0.3c-0.1,0.1-0.3,0.2-0.5,0.3c-0.2,0.1-0.4,0.2-0.6,0.2c-0.2,0.1-0.4,0.1-0.5,0.1c-0.2,0-0.3-0.1-0.3-0.3
		c0-0.2,0-0.3,0-0.4c0-0.1,0.1-0.2,0.1-0.4c-0.2,0.2-0.4,0.3-0.6,0.5c-0.2,0.1-0.5,0.3-0.8,0.4c-0.6,0.3-1.2,0.4-1.7,0.4
		c-0.4,0-0.6-0.2-0.6-0.7c0-0.3,0.1-0.6,0.2-1l1.4-3.6c0.1-0.2,0.1-0.3,0.1-0.3c0-0.1,0-0.2-0.1-0.2c0,0-0.1,0-0.2,0.1
		c-0.1,0-0.1,0.1-0.2,0.1c-0.1,0-0.1,0.1-0.2,0.1c-0.1,0-0.1,0.1-0.1,0.1c-0.1,0-0.2-0.1-0.2-0.2c0-0.1,0.1-0.2,0.2-0.3
		c0.2-0.1,0.4-0.3,0.6-0.4c0.2-0.1,0.5-0.2,0.7-0.3S172.8,243.6,172.9,243.6z M178.1,248.2l-0.5,1.4c-0.1,0.2-0.2,0.4-0.3,0.5
		c-0.2,0.2-0.3,0.2-0.5,0.2c-0.1,0-0.2,0-0.2-0.1c0,0,0-0.1,0.1-0.2c0-0.1,0.1-0.3,0.1-0.4l1.4-3.8c0.2-0.5,0.3-0.8,0.3-1
		c0-0.1-0.1-0.2-0.2-0.2c-0.1,0-0.2,0.1-0.4,0.2c-0.1,0.1-0.2,0.2-0.3,0.2c-0.1,0-0.2-0.1-0.2-0.2c0-0.1,0.1-0.2,0.2-0.3
		c0.2-0.1,0.4-0.3,0.6-0.4c0.2-0.1,0.4-0.2,0.7-0.3c0.2-0.1,0.4-0.1,0.5-0.1c0.2,0,0.3,0.1,0.3,0.2c0,0.1-0.1,0.3-0.2,0.6l-1,2.9
		l2.8-2.5c1-0.8,1.7-1.3,2.2-1.3c0.3,0,0.5,0.1,0.5,0.4c0,0.2-0.1,0.3-0.3,0.4c-0.1,0-0.3,0-0.4,0c-0.1,0-0.3,0-0.4,0.1
		c-0.2,0.1-0.4,0.2-0.7,0.3c-0.2,0.1-0.4,0.3-0.7,0.5l-1.2,1.1l1.2,2.7c0.2,0.3,0.3,0.5,0.4,0.5c0.1,0,0.1,0,0.2-0.1
		c0.1,0,0.1-0.1,0.2-0.1c0.1-0.1,0.1-0.1,0.2-0.1c0.1,0,0.1-0.1,0.1-0.1c0.1,0,0.2,0.1,0.2,0.3c0,0.1-0.1,0.1-0.2,0.2
		c-0.1,0.1-0.2,0.2-0.4,0.3c-0.2,0.1-0.3,0.2-0.5,0.3c-0.2,0.1-0.3,0.1-0.4,0.1c-0.2,0-0.4-0.2-0.6-0.6l-1.2-2.8L178.1,248.2z
		 M187.6,244.6c-0.3,0.1-0.5,0.2-0.6,0.2c-0.2,0.1-0.3,0.1-0.4,0.1c-0.1,0-0.2-0.1-0.2-0.3c0-0.1,0-0.1,0.1-0.2
		c0.1-0.1,0.2-0.1,0.4-0.2l2.2-0.6c0.1,0,0.3-0.1,0.5-0.1c0.2,0,0.3,0,0.5,0c0.4,0,0.6,0.2,0.6,0.7c0,0.3-0.1,0.6-0.3,1L189,249
		c-0.1,0.2-0.1,0.4-0.1,0.4c0,0.1,0.1,0.2,0.2,0.2c0.1,0,0.1,0,0.2-0.1c0.1,0,0.2-0.1,0.2-0.1c0.1,0,0.2-0.1,0.2-0.1
		c0.1,0,0.1-0.1,0.2-0.1c0.1,0,0.1,0.1,0.1,0.2c0,0.1-0.1,0.2-0.2,0.3c-0.1,0.1-0.3,0.2-0.4,0.3c-0.2,0.1-0.4,0.2-0.6,0.3
		c-0.2,0.1-0.4,0.1-0.6,0.1c-0.3,0-0.4-0.1-0.4-0.4c0-0.2,0.1-0.5,0.3-1l1.3-3.6c0.1-0.2,0.1-0.3,0.1-0.4c0-0.1,0.1-0.3,0.1-0.4
		c0-0.1,0-0.2-0.1-0.2c-0.1,0-0.2-0.1-0.4-0.1c-0.1,0-0.2,0-0.4,0c-0.2,0-0.3,0-0.5,0.1l-1.3,3c-0.2,0.5-0.4,1-0.6,1.4
		c-0.2,0.4-0.4,0.7-0.6,0.9c-0.2,0.2-0.4,0.4-0.6,0.5c-0.2,0.1-0.4,0.2-0.7,0.2c-0.3,0-0.5-0.1-0.7-0.3c-0.2-0.2-0.3-0.4-0.3-0.5
		c0-0.1,0-0.2,0.1-0.3c0.1-0.1,0.2-0.2,0.3-0.2c0.1,0,0.2,0,0.2,0.1c0.1,0.1,0.1,0.1,0.1,0.2c0,0.1,0.1,0.1,0.1,0.2
		c0,0.1,0.1,0.1,0.2,0.1c0.1,0,0.3,0,0.4-0.1c0.1-0.1,0.2-0.2,0.4-0.3c0.1-0.2,0.3-0.4,0.5-0.8c0.2-0.4,0.4-0.8,0.7-1.4L187.6,244.6
		z"/>
	<path fill-rule="evenodd" clip-rule="evenodd" d="M195.3,249.5c-0.6,0.6-1.4,1-2.4,1c-1.3,0-1.9-0.5-1.9-1.5c0-0.2,0.1-0.5,0.2-0.8
		c0.1-0.3,0.2-0.6,0.4-0.8c0.2-0.3,0.4-0.5,0.6-0.7c0.2-0.2,0.5-0.4,0.7-0.5c0-0.1-0.1-0.3-0.1-0.4c0-0.3,0.1-0.5,0.2-0.8
		c0.1-0.2,0.3-0.5,0.6-0.7c0.2-0.2,0.5-0.3,0.8-0.5c0.3-0.1,0.7-0.2,1-0.2c1.3,0,2,0.6,2,1.9c0,0.2-0.1,0.5-0.2,0.9l-1,2.6
		c-0.1,0.3-0.1,0.4-0.1,0.4c0,0.1,0.1,0.2,0.2,0.2c0,0,0.1,0,0.2-0.1c0.1,0,0.2-0.1,0.3-0.1c0.1,0,0.2-0.1,0.2-0.1
		c0.1,0,0.1-0.1,0.2-0.1c0.1,0,0.1,0.1,0.1,0.2c0,0.1-0.1,0.2-0.2,0.3c-0.1,0.1-0.3,0.2-0.5,0.3c-0.2,0.1-0.4,0.2-0.6,0.2
		c-0.2,0.1-0.3,0.1-0.5,0.1c-0.3,0-0.4-0.1-0.4-0.4C195.3,249.8,195.3,249.7,195.3,249.5z M195.1,245.5c-0.4,0-0.8,0.1-1.2,0.3
		c-0.4,0.2-0.7,0.5-1,0.8c-0.3,0.3-0.5,0.7-0.7,1c-0.2,0.4-0.2,0.7-0.2,1c0,0.4,0.1,0.7,0.2,0.9c0.1,0.2,0.4,0.3,0.8,0.3
		c0.4,0,0.8-0.1,1.2-0.3c0.4-0.2,0.7-0.5,1-0.8s0.5-0.7,0.7-1.1c0.2-0.4,0.3-0.8,0.3-1.2C196.2,245.8,195.9,245.5,195.1,245.5z
		 M193.7,245.5c0.5-0.3,1-0.4,1.7-0.4c0.3,0,0.5,0,0.7,0.1s0.4,0.2,0.5,0.4c0-0.1,0-0.2,0.1-0.2c0-0.1,0-0.1,0-0.2
		c0-0.3-0.1-0.6-0.4-0.8c-0.2-0.2-0.6-0.3-0.9-0.3c-0.5,0-0.9,0.1-1.2,0.4C193.9,244.8,193.7,245.1,193.7,245.5z M203.8,244.6
		c0-0.1,0-0.2,0.1-0.4c0-0.2,0.1-0.4,0.1-0.6c0-0.2,0-0.4,0.1-0.6c0-0.2,0-0.3,0-0.4c0-0.4-0.1-0.8-0.2-1c-0.1-0.3-0.2-0.5-0.4-0.6
		c-0.2-0.1-0.3-0.2-0.5-0.3c-0.2,0-0.3-0.1-0.4-0.1c-0.3,0-0.6,0-0.8,0.1c-0.2,0.1-0.3,0.2-0.5,0.3c-0.1,0.1-0.2,0.2-0.3,0.3
		c-0.1,0.1-0.2,0.1-0.3,0.1c-0.1,0-0.1,0-0.1-0.1c0-0.1,0-0.1,0-0.1c0-0.3,0.2-0.5,0.6-0.8c0.4-0.3,1-0.4,1.8-0.4
		c0.2,0,0.5,0,0.7,0.1c0.3,0.1,0.5,0.2,0.7,0.4c0.2,0.2,0.4,0.4,0.5,0.7c0.1,0.3,0.2,0.7,0.2,1.1c0,0.5-0.1,1-0.2,1.6
		c-0.1,0.6-0.2,1.2-0.4,1.8c-0.2,0.6-0.4,1.2-0.7,1.8c-0.3,0.6-0.6,1.1-0.9,1.5c-0.3,0.4-0.7,0.8-1.1,1.1c-0.4,0.3-0.8,0.4-1.2,0.4
		c-1.4,0-2-0.8-2-2.3c0-0.4,0.1-0.9,0.3-1.4c0.2-0.5,0.5-1,0.8-1.4c0.3-0.4,0.7-0.8,1.2-1.1c0.5-0.3,1-0.4,1.5-0.4
		c0.2,0,0.5,0.1,0.7,0.2C203.3,244.1,203.5,244.3,203.8,244.6L203.8,244.6z M203.6,245.2c-0.1-0.2-0.3-0.4-0.5-0.6
		c-0.2-0.2-0.4-0.3-0.7-0.3c-0.2,0-0.5,0.1-0.9,0.3c-0.3,0.2-0.6,0.4-0.9,0.7c-0.3,0.3-0.5,0.7-0.7,1.2s-0.3,1-0.3,1.7
		c0,0.5,0.1,1,0.3,1.2c0.2,0.3,0.5,0.4,0.8,0.4c0.3,0,0.7-0.1,1-0.4c0.3-0.3,0.6-0.7,0.8-1.1c0.3-0.5,0.5-1,0.6-1.5
		C203.4,246.3,203.5,245.7,203.6,245.2z M208.7,243.6c0.2,0,0.3,0.1,0.3,0.2c0,0.1,0,0.3-0.1,0.4c-0.1,0.1-0.1,0.3-0.2,0.5l-0.8,2
		c0.1-0.1,0.3-0.2,0.4-0.2c0.1-0.1,0.3-0.1,0.6-0.1h0.9c0.2,0,0.4,0,0.6-0.1c0.2-0.1,0.3-0.2,0.4-0.3l0.6-1.7
		c0.1-0.2,0.1-0.3,0.2-0.4c0-0.1,0.1-0.1,0.2-0.2c0.1-0.1,0.2-0.1,0.3-0.2s0.2-0.1,0.3-0.1c0.1,0,0.2,0.1,0.2,0.2
		c0,0-0.1,0.3-0.2,0.6l-1.6,4.3c-0.1,0.2-0.1,0.3-0.2,0.5s-0.1,0.2-0.1,0.3c0,0.1,0.1,0.2,0.2,0.2c0.1,0,0.1,0,0.2-0.1
		c0.1,0,0.2-0.1,0.3-0.1c0.1,0,0.2-0.1,0.2-0.1c0.1,0,0.1-0.1,0.1-0.1c0.1,0,0.2,0.1,0.2,0.2c0,0.1-0.1,0.2-0.2,0.3
		c-0.2,0.1-0.3,0.2-0.5,0.3c-0.2,0.1-0.4,0.2-0.6,0.2c-0.2,0.1-0.4,0.1-0.5,0.1c-0.2,0-0.3-0.1-0.3-0.3c0-0.2,0-0.3,0-0.4
		c0-0.1,0.1-0.2,0.1-0.4l0.9-2.4c-0.3,0.2-0.7,0.3-1.1,0.3h-0.8c-0.3,0-0.5,0.1-0.7,0.2c-0.2,0.1-0.3,0.2-0.3,0.3l-0.8,2
		c-0.1,0.2-0.2,0.4-0.3,0.5c-0.1,0.2-0.3,0.2-0.5,0.2c-0.1,0-0.2,0-0.2-0.1c0-0.1,0.1-0.3,0.2-0.6l1.4-3.8c0.2-0.6,0.3-0.9,0.3-1
		c0-0.1,0-0.2-0.1-0.2c0,0-0.1,0-0.2,0.1c-0.1,0-0.1,0.1-0.2,0.1c-0.1,0-0.1,0.1-0.2,0.1c-0.1,0-0.1,0.1-0.1,0.1
		c-0.1,0-0.2-0.1-0.2-0.2c0-0.1,0.1-0.2,0.2-0.3s0.3-0.3,0.6-0.4c0.2-0.1,0.5-0.2,0.7-0.3C208.3,243.6,208.5,243.6,208.7,243.6z
		 M216.9,243.6c0.3,0,0.7,0.1,0.9,0.2c0.3,0.1,0.5,0.3,0.7,0.5c0.2,0.2,0.3,0.5,0.5,0.8c0.1,0.3,0.2,0.6,0.2,0.9
		c0,0.5-0.1,1.1-0.3,1.6c-0.2,0.5-0.5,1-0.8,1.5c-0.4,0.4-0.8,0.8-1.3,1.1c-0.5,0.3-1,0.4-1.6,0.4c-0.3,0-0.6-0.1-0.9-0.2
		c-0.3-0.1-0.5-0.3-0.7-0.5c-0.2-0.2-0.3-0.5-0.4-0.7s-0.2-0.6-0.2-0.9c0-0.6,0.1-1.2,0.3-1.7c0.2-0.5,0.5-1,0.9-1.5
		c0.4-0.4,0.8-0.8,1.3-1C216,243.7,216.4,243.6,216.9,243.6z M216.7,244.1c-0.4,0-0.8,0.1-1.1,0.3s-0.6,0.5-0.9,0.9
		c-0.2,0.4-0.4,0.8-0.6,1.2c-0.1,0.4-0.2,0.9-0.2,1.3c0,0.3,0,0.5,0.1,0.8c0.1,0.2,0.1,0.4,0.3,0.6c0.1,0.2,0.3,0.3,0.4,0.4
		c0.2,0.1,0.4,0.2,0.7,0.2c0.4,0,0.8-0.1,1.2-0.4c0.3-0.2,0.6-0.5,0.9-0.9s0.4-0.8,0.5-1.2c0.1-0.5,0.2-0.9,0.2-1.3
		c0-0.2,0-0.5-0.1-0.7c-0.1-0.2-0.1-0.4-0.2-0.6c-0.1-0.2-0.3-0.3-0.4-0.4C217.2,244.2,217,244.1,216.7,244.1z M224,248.5
		c0.1,0,0.2,0.1,0.2,0.2c0,0.2,0,0.3-0.1,0.5c-0.1,0.2-0.2,0.4-0.4,0.5c-0.3,0.3-0.6,0.5-1,0.6c-0.4,0.1-0.8,0.2-1.2,0.2
		c-0.4,0-0.8-0.1-1-0.3c-0.3-0.2-0.4-0.6-0.4-1c0-0.3,0.1-0.5,0.2-0.8c0.1-0.2,0.2-0.4,0.4-0.6c0.2-0.2,0.3-0.4,0.6-0.5
		c0.2-0.2,0.4-0.3,0.6-0.5c0.2-0.2,0.5-0.3,0.7-0.5c0.2-0.2,0.4-0.3,0.6-0.5c0.2-0.2,0.3-0.3,0.5-0.5c0.1-0.2,0.2-0.3,0.2-0.5
		c0-0.3-0.1-0.5-0.2-0.5c-0.1-0.1-0.3-0.1-0.5-0.1c-0.3,0-0.6,0.1-0.8,0.2c-0.3,0.1-0.5,0.3-0.7,0.5c-0.1,0.1-0.2,0.2-0.2,0.2
		c0,0-0.1,0.1-0.1,0.1c-0.1,0-0.2-0.1-0.2-0.2c0-0.3,0.2-0.6,0.7-0.8c0.1-0.1,0.2-0.1,0.4-0.2c0.1-0.1,0.3-0.1,0.4-0.1
		c0.1,0,0.3-0.1,0.5-0.1c0.2,0,0.4,0,0.7,0c0.1,0,0.2,0,0.3,0.1c0.1,0,0.2,0.1,0.4,0.2c0.1,0.1,0.2,0.2,0.3,0.4
		c0.1,0.2,0.1,0.3,0.1,0.6c0,0.2-0.1,0.5-0.2,0.7c-0.1,0.2-0.3,0.4-0.6,0.6c-0.2,0.2-0.5,0.4-0.8,0.6c-0.3,0.2-0.6,0.4-0.8,0.5
		c-0.3,0.2-0.5,0.4-0.7,0.5c-0.2,0.2-0.3,0.3-0.4,0.5c-0.1,0.1-0.2,0.3-0.2,0.4c0,0.1,0,0.3,0,0.5c0,0.4,0.1,0.6,0.2,0.7
		c0.1,0.1,0.3,0.2,0.6,0.2c0.3,0,0.6-0.1,0.9-0.2c0.3-0.2,0.6-0.4,0.8-0.8C223.8,248.6,223.9,248.5,224,248.5z M229.6,243.6
		c0.3,0,0.7,0.1,0.9,0.2c0.3,0.1,0.5,0.3,0.7,0.5c0.2,0.2,0.3,0.5,0.5,0.8c0.1,0.3,0.2,0.6,0.2,0.9c0,0.5-0.1,1.1-0.3,1.6
		c-0.2,0.5-0.5,1-0.8,1.5c-0.4,0.4-0.8,0.8-1.3,1.1c-0.5,0.3-1,0.4-1.6,0.4c-0.3,0-0.6-0.1-0.9-0.2c-0.3-0.1-0.5-0.3-0.7-0.5
		c-0.2-0.2-0.3-0.5-0.4-0.7c-0.1-0.3-0.2-0.6-0.2-0.9c0-0.6,0.1-1.2,0.3-1.7c0.2-0.5,0.5-1,0.9-1.5s0.8-0.8,1.3-1
		C228.6,243.7,229.1,243.6,229.6,243.6z M229.4,244.1c-0.4,0-0.8,0.1-1.1,0.3c-0.3,0.2-0.6,0.5-0.9,0.9c-0.2,0.4-0.4,0.8-0.6,1.2
		c-0.1,0.4-0.2,0.9-0.2,1.3c0,0.3,0,0.5,0.1,0.8c0.1,0.2,0.1,0.4,0.3,0.6c0.1,0.2,0.3,0.3,0.4,0.4c0.2,0.1,0.4,0.2,0.7,0.2
		c0.4,0,0.8-0.1,1.2-0.4c0.3-0.2,0.6-0.5,0.9-0.9c0.2-0.4,0.4-0.8,0.5-1.2c0.1-0.5,0.2-0.9,0.2-1.3c0-0.2,0-0.5-0.1-0.7
		c-0.1-0.2-0.1-0.4-0.2-0.6c-0.1-0.2-0.3-0.3-0.4-0.4C229.9,244.2,229.7,244.1,229.4,244.1z M241.1,246.6c0-0.1,0-0.2,0-0.3
		c0-0.1,0-0.3,0-0.4c0-0.2,0-0.4-0.1-0.6c-0.1-0.2-0.1-0.4-0.3-0.6c-0.1-0.2-0.3-0.3-0.4-0.4c-0.2-0.1-0.4-0.2-0.6-0.2
		c-0.2,0-0.3,0-0.5,0.1c-0.2,0.1-0.3,0.1-0.5,0.2c-0.2,0.1-0.3,0.2-0.4,0.3c-0.1,0.1-0.2,0.2-0.3,0.4c-0.2,0.3-0.3,0.5-0.5,0.5
		c0,0-0.1,0-0.1-0.1c0,0-0.1-0.1-0.1-0.2c0-0.2,0.1-0.4,0.2-0.6c0.1-0.2,0.3-0.4,0.6-0.6c0.2-0.2,0.5-0.3,0.8-0.5
		c0.3-0.1,0.7-0.2,1-0.2c0.3,0,0.6,0.1,0.9,0.2c0.3,0.1,0.5,0.3,0.7,0.5c0.2,0.2,0.3,0.4,0.5,0.7c0.1,0.3,0.2,0.6,0.2,0.9
		c0,0.5-0.1,1.1-0.3,1.6c-0.2,0.5-0.5,1-0.8,1.5c-0.4,0.4-0.8,0.8-1.3,1.1c-0.5,0.3-1,0.4-1.6,0.4c-0.6,0-1.1-0.1-1.4-0.3
		c-0.1-0.1-0.2-0.1-0.3-0.2c-0.1-0.1-0.1-0.1-0.1-0.2c0-0.4,0.1-0.6,0.4-0.6c0.2,0,0.4,0.1,0.6,0.3c0.1,0.2,0.5,0.4,1,0.4
		c0.4,0,0.7-0.1,1-0.2c0.3-0.2,0.5-0.4,0.8-0.6c0.2-0.3,0.4-0.6,0.6-0.9c0.2-0.3,0.3-0.7,0.4-1c-0.1,0.1-0.3,0.3-0.5,0.3
		c-0.2,0.1-0.3,0.1-0.6,0.1c-0.1,0-0.1,0-0.3,0c-0.1,0-0.2-0.1-0.4-0.1c-0.1,0-0.3-0.1-0.4-0.1c-0.1,0-0.2,0-0.3,0
		c-0.2,0-0.3,0-0.5,0.1c-0.2,0.1-0.3,0.1-0.4,0.1c0,0-0.1,0-0.1-0.1c0-0.1,0-0.1,0-0.2c0,0,0-0.1,0.1-0.2c0.1-0.1,0.2-0.2,0.3-0.3
		c0.1-0.1,0.2-0.2,0.4-0.2c0.1-0.1,0.3-0.1,0.4-0.1c0.2,0,0.5,0,0.7,0.1c0.2,0.1,0.5,0.1,0.7,0.1c0.2,0,0.4,0,0.5,0
		C240.9,246.7,241,246.6,241.1,246.6z M245,243.6c0.2,0,0.3,0.1,0.3,0.2c0,0.2-0.1,0.6-0.3,0.9c0.1-0.1,0.3-0.2,0.5-0.4
		c0.2-0.1,0.5-0.3,0.8-0.4c0.3-0.1,0.6-0.2,0.9-0.3c0.3-0.1,0.6-0.1,0.8-0.1c0.3,0,0.4,0.1,0.4,0.2c0,0.1,0,0.3-0.1,0.5
		c0.7-0.5,1.5-0.7,2.2-0.7c0.4,0,0.6,0.2,0.6,0.7c0,0.3-0.1,0.6-0.3,1l-1.4,3.6c-0.1,0.3-0.2,0.4-0.2,0.5c0,0.1,0.1,0.2,0.2,0.2
		c0,0,0.1,0,0.2-0.1c0.1,0,0.2-0.1,0.2-0.1c0.1,0,0.2-0.1,0.2-0.1c0.1,0,0.1-0.1,0.2-0.1c0.1,0,0.1,0.1,0.1,0.2
		c0,0.1-0.1,0.2-0.2,0.3c-0.1,0.1-0.3,0.2-0.5,0.3c-0.2,0.1-0.4,0.2-0.6,0.2c-0.2,0.1-0.4,0.1-0.5,0.1c-0.3,0-0.4-0.1-0.4-0.4
		c0-0.2,0.1-0.5,0.3-1l1.3-3.6c0.1-0.3,0.2-0.5,0.2-0.7c0-0.2-0.1-0.4-0.4-0.4c-0.2,0-0.5,0-0.7,0.1c-0.3,0.1-0.6,0.3-0.9,0.5
		l-1.8,4.6c-0.1,0.2-0.2,0.4-0.3,0.5c-0.1,0.2-0.3,0.2-0.6,0.2c-0.1,0-0.2,0-0.2-0.1c0,0,0-0.1,0-0.2c0-0.1,0.1-0.2,0.1-0.4l1.4-3.8
		c0.3-0.7,0.4-1.1,0.4-1.1c0-0.2-0.1-0.2-0.3-0.2c-0.3,0-0.7,0.2-1.2,0.5c-0.7,0.4-1.1,0.9-1.3,1.5l-1.3,3.3
		c-0.1,0.2-0.2,0.4-0.3,0.5c-0.1,0.2-0.3,0.2-0.6,0.2c-0.1,0-0.2,0-0.2-0.1c0,0,0-0.1,0-0.2c0-0.1,0.1-0.2,0.1-0.4l1.4-3.8
		c0.2-0.6,0.3-0.9,0.3-1c0-0.1,0-0.2-0.1-0.2c0,0-0.1,0-0.2,0.1c-0.1,0-0.1,0.1-0.2,0.1c-0.1,0-0.1,0.1-0.2,0.1
		c-0.1,0-0.1,0.1-0.1,0.1c-0.1,0-0.2-0.1-0.2-0.2c0-0.1,0.1-0.2,0.2-0.3c0.2-0.1,0.3-0.3,0.6-0.4c0.2-0.1,0.5-0.2,0.7-0.3
		C244.7,243.6,244.9,243.6,245,243.6z M254.3,243.6c0.2,0,0.3,0.1,0.3,0.2c0,0.1,0,0.2-0.1,0.4c-0.1,0.2-0.1,0.3-0.2,0.5l-1.5,3.9
		c-0.1,0.3-0.2,0.5-0.2,0.7c0,0.2,0.1,0.4,0.4,0.4c0.2,0,0.5-0.1,0.8-0.2c0.3-0.1,0.5-0.3,0.8-0.4c0.3-0.2,0.5-0.4,0.7-0.6
		c0.2-0.2,0.3-0.5,0.5-0.7l1.3-3.4c0-0.1,0.1-0.2,0.1-0.2c0-0.1,0.1-0.1,0.1-0.2c0,0,0.1-0.1,0.1-0.1c0.1,0,0.1-0.1,0.2-0.1
		c0.1,0,0.1-0.1,0.2-0.1c0.1,0,0.1,0,0.2,0c0.1,0,0.2,0,0.2,0.1c0,0-0.1,0.3-0.2,0.6l-1.6,4.3c-0.1,0.2-0.1,0.4-0.2,0.5
		c0,0.1-0.1,0.2-0.1,0.2c0,0.1,0.1,0.2,0.2,0.2c0.1,0,0.2,0,0.2-0.1c0.1,0,0.2-0.1,0.2-0.1c0.1,0,0.2-0.1,0.2-0.1
		c0.1,0,0.1-0.1,0.1-0.1c0.1,0,0.2,0.1,0.2,0.2c0,0.1-0.1,0.2-0.2,0.3c-0.1,0.1-0.3,0.2-0.5,0.3c-0.2,0.1-0.4,0.2-0.6,0.2
		c-0.2,0.1-0.4,0.1-0.5,0.1c-0.2,0-0.3-0.1-0.3-0.3c0-0.2,0-0.3,0-0.4c0-0.1,0.1-0.2,0.1-0.4c-0.2,0.2-0.4,0.3-0.6,0.5
		c-0.2,0.1-0.5,0.3-0.8,0.4c-0.6,0.3-1.2,0.4-1.7,0.4c-0.4,0-0.6-0.2-0.6-0.7c0-0.3,0.1-0.6,0.2-1l1.4-3.6c0.1-0.2,0.1-0.3,0.1-0.3
		c0-0.1,0-0.2-0.1-0.2c0,0-0.1,0-0.2,0.1c-0.1,0-0.1,0.1-0.2,0.1c-0.1,0-0.1,0.1-0.2,0.1c-0.1,0-0.1,0.1-0.1,0.1
		c-0.1,0-0.2-0.1-0.2-0.2c0-0.1,0.1-0.2,0.2-0.3c0.2-0.1,0.4-0.3,0.6-0.4c0.2-0.1,0.5-0.2,0.7-0.3
		C254,243.6,254.2,243.6,254.3,243.6z M259.5,248.2l-0.5,1.4c-0.1,0.2-0.2,0.4-0.3,0.5c-0.2,0.2-0.3,0.2-0.5,0.2
		c-0.1,0-0.2,0-0.2-0.1c0,0,0-0.1,0.1-0.2c0-0.1,0.1-0.3,0.1-0.4l1.4-3.8c0.2-0.5,0.3-0.8,0.3-1c0-0.1-0.1-0.2-0.2-0.2
		c-0.1,0-0.2,0.1-0.4,0.2c-0.1,0.1-0.2,0.2-0.3,0.2c-0.1,0-0.2-0.1-0.2-0.2c0-0.1,0.1-0.2,0.2-0.3c0.2-0.1,0.4-0.3,0.6-0.4
		c0.2-0.1,0.4-0.2,0.7-0.3c0.2-0.1,0.4-0.1,0.5-0.1c0.2,0,0.3,0.1,0.3,0.2c0,0.1-0.1,0.3-0.2,0.6l-1,2.9l2.8-2.5
		c1-0.8,1.7-1.3,2.2-1.3c0.3,0,0.5,0.1,0.5,0.4c0,0.2-0.1,0.3-0.3,0.4c-0.1,0-0.3,0-0.4,0c-0.1,0-0.3,0-0.4,0.1
		c-0.2,0.1-0.4,0.2-0.7,0.3c-0.2,0.1-0.4,0.3-0.7,0.5l-1.2,1.1l1.2,2.7c0.2,0.3,0.3,0.5,0.4,0.5c0.1,0,0.1,0,0.2-0.1
		c0.1,0,0.1-0.1,0.2-0.1c0.1-0.1,0.1-0.1,0.2-0.1c0.1,0,0.1-0.1,0.1-0.1c0.1,0,0.2,0.1,0.2,0.3c0,0.1-0.1,0.1-0.2,0.2
		c-0.1,0.1-0.2,0.2-0.4,0.3c-0.2,0.1-0.3,0.2-0.5,0.3c-0.2,0.1-0.3,0.1-0.4,0.1c-0.2,0-0.4-0.2-0.6-0.6l-1.2-2.8L259.5,248.2z
		 M266.1,248.5c0.1,0.9,0.6,1.4,1.4,1.4c0.7,0,1.4-0.2,1.9-0.7c0.2-0.2,0.3-0.3,0.3-0.3c0.1,0,0.2,0.1,0.2,0.2
		c0,0.1-0.1,0.2-0.2,0.4c-0.6,0.7-1.5,1-2.5,1c-0.7,0-1.3-0.2-1.6-0.6c-0.4-0.4-0.6-1-0.6-1.7c0-0.6,0.1-1.1,0.3-1.7
		c0.2-0.5,0.5-1,0.9-1.5c0.4-0.4,0.8-0.8,1.3-1.1c0.5-0.3,1-0.4,1.5-0.4c1,0,1.5,0.5,1.5,1.4c0,0.5-0.1,0.9-0.4,1.3
		c-0.3,0.4-0.6,0.8-1,1.1c-0.4,0.3-0.9,0.6-1.4,0.8C267.2,248.4,266.7,248.5,266.1,248.5z M266.1,248.1c0.5,0,0.9-0.1,1.4-0.2
		c0.4-0.1,0.8-0.3,1.1-0.6c0.3-0.3,0.6-0.6,0.8-0.9s0.3-0.7,0.3-1.2c0-0.7-0.3-1.1-0.8-1.1c-0.4,0-0.8,0.1-1.2,0.3
		c-0.3,0.2-0.6,0.5-0.9,0.9c-0.2,0.4-0.4,0.8-0.6,1.2c-0.1,0.4-0.2,0.9-0.2,1.3V248.1z"/>
	<path fill-rule="evenodd" clip-rule="evenodd" d="M274,243.6c0.2,0,0.3,0.1,0.3,0.2c0,0.2-0.1,0.6-0.3,0.9c0.1-0.1,0.3-0.2,0.5-0.4
		c0.2-0.1,0.5-0.3,0.8-0.4c0.3-0.1,0.6-0.2,0.9-0.3c0.3-0.1,0.6-0.1,0.8-0.1c0.3,0,0.4,0.1,0.4,0.2c0,0.1,0,0.3-0.1,0.5
		c0.7-0.5,1.5-0.7,2.2-0.7c0.4,0,0.6,0.2,0.6,0.7c0,0.3-0.1,0.6-0.3,1l-1.4,3.6c-0.1,0.3-0.2,0.4-0.2,0.5c0,0.1,0.1,0.2,0.2,0.2
		c0,0,0.1,0,0.2-0.1c0.1,0,0.2-0.1,0.2-0.1c0.1,0,0.2-0.1,0.2-0.1c0.1,0,0.1-0.1,0.2-0.1c0.1,0,0.1,0.1,0.1,0.2
		c0,0.1-0.1,0.2-0.2,0.3c-0.1,0.1-0.3,0.2-0.5,0.3c-0.2,0.1-0.4,0.2-0.6,0.2c-0.2,0.1-0.4,0.1-0.5,0.1c-0.3,0-0.4-0.1-0.4-0.4
		c0-0.2,0.1-0.5,0.3-1l1.3-3.6c0.1-0.3,0.2-0.5,0.2-0.7c0-0.2-0.1-0.4-0.4-0.4c-0.2,0-0.5,0-0.7,0.1c-0.3,0.1-0.6,0.3-0.9,0.5
		l-1.8,4.6c-0.1,0.2-0.2,0.4-0.3,0.5c-0.1,0.2-0.3,0.2-0.6,0.2c-0.1,0-0.2,0-0.2-0.1c0,0,0-0.1,0-0.2c0-0.1,0.1-0.2,0.1-0.4l1.4-3.8
		c0.3-0.7,0.4-1.1,0.4-1.1c0-0.2-0.1-0.2-0.3-0.2c-0.3,0-0.7,0.2-1.2,0.5c-0.7,0.4-1.1,0.9-1.3,1.5l-1.3,3.3
		c-0.1,0.2-0.2,0.4-0.3,0.5c-0.1,0.2-0.3,0.2-0.6,0.2c-0.1,0-0.2,0-0.2-0.1c0,0,0-0.1,0-0.2c0-0.1,0.1-0.2,0.1-0.4l1.4-3.8
		c0.2-0.6,0.3-0.9,0.3-1c0-0.1,0-0.2-0.1-0.2c0,0-0.1,0-0.2,0.1c-0.1,0-0.1,0.1-0.2,0.1c-0.1,0-0.1,0.1-0.2,0.1
		c-0.1,0-0.1,0.1-0.1,0.1c-0.1,0-0.2-0.1-0.2-0.2c0-0.1,0.1-0.2,0.2-0.3c0.2-0.1,0.3-0.3,0.6-0.4c0.2-0.1,0.5-0.2,0.7-0.3
		C273.6,243.6,273.8,243.6,274,243.6z M284.7,249.5c-0.6,0.6-1.4,1-2.4,1c-1.3,0-1.9-0.5-1.9-1.5c0-0.2,0.1-0.5,0.2-0.8
		c0.1-0.3,0.2-0.6,0.4-0.8c0.2-0.3,0.4-0.5,0.6-0.7c0.2-0.2,0.5-0.4,0.7-0.5c0-0.1-0.1-0.3-0.1-0.4c0-0.3,0.1-0.5,0.2-0.8
		c0.1-0.2,0.3-0.5,0.6-0.7c0.2-0.2,0.5-0.3,0.8-0.5c0.3-0.1,0.7-0.2,1-0.2c1.3,0,2,0.6,2,1.9c0,0.2-0.1,0.5-0.2,0.9l-1,2.6
		c-0.1,0.3-0.1,0.4-0.1,0.4c0,0.1,0.1,0.2,0.2,0.2c0,0,0.1,0,0.2-0.1c0.1,0,0.2-0.1,0.3-0.1c0.1,0,0.2-0.1,0.2-0.1
		c0.1,0,0.1-0.1,0.2-0.1c0.1,0,0.1,0.1,0.1,0.2c0,0.1-0.1,0.2-0.2,0.3c-0.1,0.1-0.3,0.2-0.5,0.3c-0.2,0.1-0.4,0.2-0.6,0.2
		c-0.2,0.1-0.3,0.1-0.5,0.1c-0.3,0-0.4-0.1-0.4-0.4C284.7,249.8,284.7,249.7,284.7,249.5z M284.5,245.5c-0.4,0-0.8,0.1-1.2,0.3
		c-0.4,0.2-0.7,0.5-1,0.8c-0.3,0.3-0.5,0.7-0.7,1c-0.2,0.4-0.2,0.7-0.2,1c0,0.4,0.1,0.7,0.2,0.9c0.1,0.2,0.4,0.3,0.8,0.3
		c0.4,0,0.8-0.1,1.2-0.3c0.4-0.2,0.7-0.5,1-0.8c0.3-0.3,0.5-0.7,0.7-1.1c0.2-0.4,0.3-0.8,0.3-1.2
		C285.6,245.8,285.3,245.5,284.5,245.5z M283.1,245.5c0.5-0.3,1-0.4,1.7-0.4c0.3,0,0.5,0,0.7,0.1c0.2,0.1,0.4,0.2,0.5,0.4
		c0-0.1,0-0.2,0.1-0.2c0-0.1,0-0.1,0-0.2c0-0.3-0.1-0.6-0.4-0.8c-0.2-0.2-0.6-0.3-0.9-0.3c-0.5,0-0.9,0.1-1.2,0.4
		C283.3,244.8,283.1,245.1,283.1,245.5z"/>
</g>
<path fill-rule="evenodd" clip-rule="evenodd" d="M140.5,270.3c0,0.4-0.2,0.6-0.7,0.6c-5.2,0-7.7-2-7.7-5.9c0-1.4,0.4-2.6,1.3-3.7
	c0.8-1.1,1.9-1.9,3.2-2.7c1.3-0.7,2.7-1.2,4.3-1.6c1.6-0.4,3.1-0.5,4.5-0.5c1.6,0,3.1,0.2,4.7,0.5c1.6,0.3,3,0.9,4.3,1.6
	c1.3,0.7,2.3,1.6,3.1,2.7c0.8,1.1,1.2,2.4,1.2,3.9c0,1.2-0.3,2.3-0.8,3.4c-0.6,1.1-1.3,2.1-2.2,2.9c-0.9,0.9-2,1.5-3.2,2
	c-1.2,0.5-2.4,0.8-3.7,0.8c-0.5,0-1,0-1.4,0c-0.4,0-0.8-0.1-1.1-0.1l-1.6,4.3c-0.2,0.4-0.3,0.8-0.3,1.1c-0.1,0.3-0.1,0.5-0.1,0.7
	c0,0.3,0.1,0.5,0.4,0.5c0.1,0,0.3,0,0.4-0.1c0.2-0.1,0.4-0.2,0.5-0.3c0.2-0.1,0.4-0.2,0.5-0.3c0.2-0.1,0.3-0.1,0.3-0.1
	c0.2,0,0.3,0.1,0.3,0.4c0,0.2-0.2,0.5-0.6,0.8c-0.4,0.3-0.9,0.7-1.4,1c-0.5,0.3-1.1,0.6-1.6,0.9c-0.5,0.2-0.9,0.4-1.2,0.4
	c-0.4,0-0.6-0.2-0.6-0.7c0-0.3,0.1-0.9,0.4-1.7l5.9-16.8c0.2-0.5,0.3-0.9,0.4-1.2c0.1-0.3,0.1-0.5,0.1-0.7c0-0.2-0.1-0.3-0.3-0.3
	c0,0-0.1,0-0.3,0.1c-0.1,0.1-0.3,0.1-0.4,0.2c-0.2,0.1-0.3,0.1-0.4,0.2s-0.2,0.1-0.3,0.1c-0.2,0-0.3-0.1-0.3-0.3
	c0-0.2,0.2-0.4,0.6-0.7c0.4-0.3,0.8-0.6,1.3-0.9c0.5-0.3,1-0.5,1.5-0.8s0.8-0.3,1.1-0.3c0.3,0,0.4,0.2,0.4,0.5
	c0,0.3-0.2,1.1-0.6,2.2l-2.8,8.1c-0.1,0.3-0.2,0.6-0.3,0.9c-0.1,0.3-0.1,0.5-0.1,0.6c0,0.7,0.5,1,1.6,1c1.1,0,2.1-0.2,3.1-0.5
	c0.9-0.4,1.8-0.9,2.4-1.5c0.7-0.7,1.2-1.5,1.6-2.4c0.4-1,0.6-2,0.6-3.2c0-1.3-0.3-2.4-1-3.4c-0.7-1-1.5-1.7-2.6-2.4
	c-1.1-0.6-2.3-1.1-3.6-1.4c-1.3-0.3-2.7-0.5-4.1-0.5c-1.3,0-2.5,0.1-3.9,0.4c-1.3,0.3-2.5,0.7-3.6,1.3c-1.1,0.6-1.9,1.4-2.6,2.3
	c-0.7,0.9-1,2-1,3.2c0,3.2,1.9,4.8,5.7,4.8C140.3,269.8,140.5,269.9,140.5,270.3z M184.1,259.1c1.2-0.6,2.6-0.8,4.3-0.8
	c1.3,0,2,0.3,2,1c0,0.4-0.2,0.6-0.7,0.6c-0.4,0-0.8-0.1-1.1-0.2c-0.3-0.1-0.7-0.2-1.1-0.2c-1.1,0-2,0.2-2.6,0.5
	c0.8,0.7,1.4,1.6,1.7,2.5c0.4,0.9,0.6,1.9,0.6,3c0,1.2-0.2,2.2-0.6,3.2l-3.4,9.2c-0.4,1-0.6,1.6-0.6,1.9c0,0.3,0.1,0.5,0.4,0.5
	c0.2,0,0.3,0,0.5-0.1c0.2-0.1,0.3-0.2,0.5-0.3c0.2-0.1,0.3-0.2,0.5-0.3c0.1-0.1,0.3-0.1,0.4-0.1c0.2,0,0.3,0.1,0.3,0.4
	c0,0.2-0.2,0.5-0.6,0.8c-0.4,0.3-0.9,0.7-1.4,1c-0.5,0.3-1.1,0.6-1.6,0.9c-0.5,0.2-0.9,0.4-1.1,0.4c-0.4,0-0.6-0.2-0.6-0.7
	c0-0.4,0.2-1,0.5-1.7l2.5-6c-1.7,1.1-4.9,1.6-9.6,1.6c-2.8,5-6.2,7.4-10.2,7.4c-1.8,0-2.7-0.4-2.7-1.1c0-0.6,0.4-0.9,1.2-0.9
	c0.2,0,0.3,0,0.5,0.1c0.2,0.1,0.3,0.1,0.6,0.2c0.2,0.1,0.5,0.1,0.8,0.2c0.3,0.1,0.7,0.1,1.2,0.1c2.7,0,5.1-2,7.1-6
	c-0.7,0-1.3,0.1-1.9,0.4c-0.6,0.3-1.2,0.7-1.9,1.4c-0.4,0.4-0.7,0.6-0.8,0.6c-0.3,0-0.4-0.1-0.4-0.4c0-0.3,0.2-0.6,0.5-1
	c0.3-0.4,0.7-0.8,1.3-1.2c0.5-0.4,1.2-0.7,1.9-1c0.7-0.3,1.4-0.4,2.2-0.4c0.7-1.4,1.4-2.8,2.1-4.3c0.7-1.4,1.5-2.8,2.4-4.1
	c0.8-1.3,1.7-2.5,2.7-3.6c1-1.1,2-2,3.1-2.7c-0.4-0.4-0.9-0.7-1.5-0.9c-0.6-0.3-1.3-0.5-2-0.7c-0.7-0.2-1.5-0.3-2.2-0.4
	c-0.8-0.1-1.5-0.1-2.2-0.1c-1.3,0-2.7,0.2-4,0.5c-1.3,0.3-2.5,0.8-3.6,1.4c-1,0.6-1.9,1.4-2.6,2.3c-0.7,0.9-1,2-1,3.2
	c0,3.2,1.9,4.8,5.7,4.8c0.4,0,0.6,0.2,0.6,0.6s-0.2,0.6-0.7,0.6c-5.2,0-7.8-2-7.8-5.9c0-1.4,0.4-2.6,1.3-3.7
	c0.9-1.1,1.9-1.9,3.2-2.7c1.3-0.7,2.7-1.2,4.3-1.6c1.6-0.4,3.1-0.5,4.5-0.5c0.8,0,1.6,0.1,2.5,0.2c0.9,0.1,1.7,0.3,2.5,0.5
	c0.8,0.2,1.6,0.5,2.3,0.8C182.9,258.3,183.5,258.7,184.1,259.1z M181.8,273.4c1-0.4,1.8-1.2,2.2-2.4l0.9-2.4c0.4-1,0.6-2.1,0.6-3.2
	c0-2.1-0.7-3.7-2-4.8c-2.8,1.3-6,5.8-9.6,13.7c1.9,0,3.5-0.1,4.8-0.2C180,274,181.1,273.7,181.8,273.4z M223.7,256.5
	c0.3,0,0.4,0.2,0.4,0.5c0,0.1,0,0.4-0.1,0.7c-0.1,0.3-0.2,0.8-0.5,1.4l-3.4,9.9c-0.7,2.1-1.5,4.2-2.3,6.1c-0.8,1.9-1.8,3.6-2.8,5.1
	c-1.1,1.4-2.3,2.6-3.7,3.4c-1.4,0.9-3,1.3-4.9,1.3c-1.8,0-2.7-0.4-2.7-1.1c0-0.6,0.4-0.9,1.2-0.9c0.3,0,0.8,0.1,1.3,0.3
	c0.5,0.2,1.1,0.3,1.7,0.3c1.3,0,2.4-0.4,3.3-1.1c1-0.7,1.8-1.6,2.6-2.8c0.7-1.1,1.4-2.4,1.9-3.8c0.5-1.4,1-2.8,1.5-4.1h-0.1
	c-1.8,1.4-3.7,2-5.6,2c-0.9,0-1.6-0.3-2.1-0.9c-0.5-0.6-0.8-1.4-0.8-2.4c0-0.7,0.1-1.4,0.4-2.1c0.3-0.7,0.5-1.4,0.7-2.1l1.5-4.5
	c0.1-0.3,0.2-0.6,0.2-0.9c0-0.3,0.1-0.6,0.1-0.9c0-0.5-0.2-0.9-0.7-1.2c-0.4-0.3-1-0.6-1.7-0.8c-0.7-0.2-1.4-0.3-2.3-0.4
	c-0.8-0.1-1.6-0.1-2.4-0.1c-1.1,0-2.2,0.2-3.4,0.5c-1.2,0.3-2.3,0.8-3.3,1.4c-1,0.6-1.8,1.4-2.5,2.3c-0.7,0.9-1,1.9-1,3.1
	c0,3.2,1.9,4.8,5.7,4.8c0.4,0,0.6,0.2,0.6,0.6s-0.2,0.6-0.7,0.6c-2.6,0-4.6-0.5-5.9-1.4c-1.3-0.9-1.9-2.4-1.9-4.5
	c0-0.9,0.2-1.7,0.6-2.5c0.4-0.8,0.9-1.5,1.5-2.1c0.6-0.6,1.4-1.2,2.2-1.7c0.8-0.5,1.7-0.9,2.6-1.2c0.9-0.3,1.8-0.6,2.8-0.8
	c0.9-0.2,1.8-0.3,2.7-0.3c0.8,0,1.8,0,2.9,0.1c1.1,0.1,2.1,0.2,3.1,0.4s1.8,0.5,2.5,0.8c0.7,0.3,1,0.8,1,1.2c0,0.4-0.2,1.3-0.7,2.7
	l-1.6,4.5c-0.4,1-0.6,1.8-0.8,2.5c-0.2,0.6-0.2,1.1-0.2,1.5c0,1.4,0.7,2.2,2.2,2.2c1.4,0,3.1-0.8,4.9-2.3l3.4-10
	c0.2-0.4,0.2-0.7,0.2-0.9c0-0.2-0.1-0.3-0.4-0.3c-0.2,0-0.4,0.1-0.7,0.3c-0.3,0.2-0.5,0.3-0.7,0.3c-0.2,0-0.3-0.1-0.3-0.3
	c0-0.1,0.2-0.4,0.5-0.6c0.4-0.3,0.8-0.6,1.3-0.9c0.5-0.3,1-0.6,1.5-0.8C223.1,256.6,223.5,256.5,223.7,256.5z M245,260.7
	c0.3,0,0.4,0.2,0.4,0.5c0,0.3-0.2,1-0.6,2.2l-2.7,7.3c-0.3,1-0.7,1.8-1,2.6c-0.3,0.8-0.6,1.5-0.8,2.1c-0.3,0.6-0.5,1.2-0.8,1.8
	c-0.3,0.6-0.6,1.1-1,1.7c-0.7,1.1-1.4,2.1-2.1,2.9c-0.7,0.8-1.5,1.4-2.3,1.9c-0.8,0.5-1.6,0.8-2.5,1c-0.9,0.2-1.7,0.3-2.6,0.3
	c-1.8,0-2.7-0.4-2.7-1.1c0-0.6,0.4-0.9,1.2-0.9c0.3,0,0.8,0.1,1.3,0.3c0.5,0.2,1.1,0.3,1.7,0.3c1,0,2.1-0.3,3.1-0.9
	c1-0.6,2-1.5,2.8-2.8c0.4-0.7,0.8-1.5,1.2-2.4c0.4-0.9,0.8-1.8,1.2-2.8s0.7-2,1.1-3c0.3-1,0.7-2,1-3l1.1-3.3
	c0.2-0.5,0.3-0.9,0.4-1.2c0.1-0.3,0.1-0.5,0.1-0.7c0-0.2-0.1-0.3-0.3-0.3c-0.1,0-0.2,0-0.3,0.1c-0.1,0.1-0.2,0.1-0.4,0.2
	c-0.1,0.1-0.3,0.1-0.4,0.2c-0.1,0.1-0.2,0.1-0.3,0.1c-0.2,0-0.3-0.1-0.3-0.3c0-0.1,0.2-0.4,0.5-0.6c0.3-0.3,0.8-0.6,1.2-0.9
	c0.5-0.3,1-0.6,1.5-0.8C244.3,260.8,244.7,260.7,245,260.7z M256.7,260.7c0.3,0,0.4,0.2,0.4,0.5c0,0.3-0.2,1-0.6,2.2l-5.1,14.5
	c-0.4,1-0.6,1.6-0.6,1.9c0,0.3,0.1,0.5,0.4,0.5c0.1,0,0.3,0,0.5-0.1c0.2-0.1,0.3-0.2,0.5-0.3c0.2-0.1,0.3-0.2,0.5-0.3
	c0.1-0.1,0.3-0.1,0.4-0.1c0.2,0,0.3,0.1,0.3,0.4c0,0.2-0.2,0.5-0.6,0.8c-0.4,0.3-0.9,0.7-1.4,1c-0.5,0.3-1.1,0.6-1.6,0.9
	c-0.5,0.2-0.9,0.4-1.2,0.4c-0.4,0-0.6-0.2-0.6-0.7c0-0.2,0-0.4,0.1-0.7c0.1-0.3,0.2-0.6,0.3-1l5.3-15c0.2-0.5,0.3-0.9,0.4-1.2
	c0.1-0.3,0.1-0.5,0.1-0.7c0-0.2-0.1-0.3-0.3-0.3c-0.2,0-0.4,0.1-0.7,0.3c-0.3,0.2-0.5,0.3-0.6,0.3c-0.2,0-0.3-0.1-0.3-0.3
	c0-0.1,0.2-0.4,0.5-0.6c0.3-0.3,0.8-0.6,1.2-0.9c0.5-0.3,1-0.6,1.5-0.8C256,260.8,256.4,260.7,256.7,260.7z M259,257.3
	c0.3,0,0.6,0,0.9-0.1c0.3-0.1,0.5-0.2,0.8-0.3c0.2-0.1,0.4-0.2,0.6-0.3c0.2-0.1,0.4-0.1,0.6-0.1c0.2,0,0.3,0.2,0.3,0.5
	c0,0.1-0.1,0.2-0.3,0.5s-0.5,0.5-0.8,0.8c-0.3,0.3-0.6,0.6-0.9,0.8c-0.3,0.2-0.5,0.4-0.7,0.4c-1.1,0-2.3-0.1-3.5-0.2
	c-1.2-0.1-2.7-0.3-4.4-0.5c-1.7-0.2-3.7-0.3-5.9-0.5c-2.3-0.1-5-0.2-8.1-0.2c-1,0-2.1,0.2-3.1,0.5c-1.1,0.3-2,0.7-2.9,1.3
	c-0.9,0.6-1.6,1.3-2.1,2.2c-0.5,0.8-0.8,1.8-0.8,2.9c0,1.6,0.5,2.8,1.5,3.6c1,0.8,2.4,1.2,4.4,1.2c0.4,0,0.6,0.2,0.6,0.6
	s-0.2,0.6-0.7,0.6c-2.6,0-4.6-0.5-5.9-1.4c-1.3-0.9-1.9-2.4-1.9-4.5c0-1.4,0.4-2.7,1.2-3.8c0.8-1.1,1.9-1.9,3.1-2.6
	c1.3-0.7,2.7-1.2,4.3-1.6c1.6-0.3,3.1-0.5,4.7-0.5c2.4,0,4.6,0,6.6,0.1c2,0.1,3.8,0.2,5.4,0.3c1.6,0.1,3,0.2,4.2,0.3
	C257.2,257.3,258.2,257.3,259,257.3z M251.5,260.7c0.3,0,0.4,0.1,0.4,0.3c0,0.2,0,0.4-0.1,0.5c-0.3,0.3-0.5,0.7-0.8,1.1
	c-0.3,0.4-0.5,0.8-0.8,1.4c-0.3,0.5-0.6,1.2-0.9,2c-0.3,0.8-0.7,1.8-1,3l-2.3,7c-0.2,0.6-0.5,1.3-0.8,2c-0.4,0.8-0.8,1.5-1.2,2.2
	c-0.4,0.7-0.9,1.3-1.4,1.8c-0.5,0.5-0.9,0.7-1.3,0.7c-0.3,0-0.4-0.1-0.4-0.3s0.1-0.4,0.4-0.7c0.5-0.5,1.1-1.3,1.6-2.4
	c0.5-1.1,1-2.5,1.6-4.1l2.6-7.7c0.2-0.7,0.6-1.5,1-2.3c0.4-0.8,0.9-1.5,1.3-2.2c0.5-0.7,0.9-1.2,1.3-1.7
	C250.9,260.9,251.3,260.7,251.5,260.7z"/>
</svg>
